<svg width="27" height="27" viewBox="0 0 27 27" fill="none" xmlns="http://www.w3.org/2000/svg">
<path fill-rule="evenodd" clip-rule="evenodd" d="M9.135 3.2869C9.05938 3.27498 8.9825 3.27317 8.9064 3.2815C7.3926 3.4453 5.0886 4.2625 3.7278 5.0005C3.63792 5.04953 3.55747 5.11413 3.4902 5.1913C2.925 5.8375 2.412 6.8905 2.0106 7.8877C1.5966 8.9101 1.2546 9.99011 1.062 10.7713C0.424802 13.3093 0.0774017 16.3567 0.0306018 19.2475C0.0291129 19.3918 0.0637666 19.5341 0.131402 19.6615C0.671402 20.6929 1.836 21.6487 3.0024 22.3471C4.1814 23.0545 5.5584 23.6125 6.6672 23.7205C6.80005 23.7332 6.93403 23.7149 7.05864 23.6671C7.18325 23.6194 7.29509 23.5434 7.3854 23.4451C7.6626 23.1445 8.1342 22.4425 8.4906 21.8971C8.6526 21.6487 8.8056 21.4111 8.9244 21.2221C10.116 21.4381 11.61 21.5641 13.5 21.5641C15.3864 21.5641 16.8804 21.4381 18.072 21.2221C18.1908 21.4129 18.342 21.6487 18.504 21.8953C18.8604 22.4425 19.332 23.1445 19.611 23.4451C19.7013 23.5434 19.8132 23.6194 19.9378 23.6671C20.0624 23.7149 20.1964 23.7332 20.3292 23.7205C21.438 23.6125 22.8132 23.0545 23.9922 22.3471C25.1586 21.6487 26.3232 20.6929 26.865 19.6615C26.932 19.5339 26.966 19.3916 26.964 19.2475C26.919 16.3567 26.5698 13.3075 25.9362 10.7695C25.6816 9.78928 25.3635 8.82665 24.984 7.8877C24.5826 6.8905 24.0696 5.8357 23.5062 5.1913C23.4384 5.11396 23.3573 5.04935 23.2668 5.0005C21.9078 4.2625 19.6038 3.4453 18.0882 3.2815C18.0127 3.27333 17.9364 3.27514 17.8614 3.2869C17.5222 3.35219 17.204 3.49924 16.9344 3.7153C16.3306 4.20137 15.8424 4.81558 15.5052 5.5135C14.8381 5.46118 14.1692 5.43536 13.5 5.4361C12.7764 5.4361 12.1068 5.4631 11.4894 5.5117C11.1519 4.81443 10.6638 4.20085 10.0602 3.7153C9.79116 3.4995 9.47361 3.35247 9.135 3.2869ZM19.8324 20.7685C20.0857 21.1586 20.3456 21.5445 20.6118 21.9259C21.3246 21.7639 22.2336 21.3859 23.1048 20.8639C24.0822 20.2789 24.858 19.6039 25.2324 19.0333C25.173 16.3225 24.8382 13.5073 24.2604 11.1889C24.025 10.2859 23.7316 9.39908 23.382 8.53391C23.022 7.63751 22.635 6.8779 22.2984 6.4423C21.1284 5.8357 19.2834 5.1949 18.081 5.0203C18.0448 5.04225 18.01 5.06629 17.9766 5.0923C17.8275 5.20964 17.6911 5.34238 17.5698 5.4883C17.4988 5.5728 17.431 5.65986 17.3664 5.7493C17.9154 5.8501 18.405 5.9707 18.8388 6.1039C20.07 6.4819 20.9574 7.0039 21.3912 7.5817C21.5287 7.76502 21.5877 7.99545 21.5553 8.22229C21.5229 8.44914 21.4017 8.65382 21.2184 8.7913C21.1276 8.85938 21.0243 8.90891 20.9144 8.93707C20.8045 8.96523 20.6901 8.97147 20.5778 8.95542C20.351 8.92302 20.1463 8.80182 20.0088 8.61851C19.9026 8.47811 19.44 8.0965 18.3312 7.7545C17.2602 7.4269 15.6852 7.1641 13.5 7.1641C11.3148 7.1641 9.738 7.4269 8.6688 7.7563C7.56 8.0983 7.0974 8.47631 6.9912 8.61851C6.92312 8.70927 6.83783 8.78575 6.7402 8.84355C6.64257 8.90136 6.53451 8.93938 6.42219 8.95542C6.19535 8.98783 5.96492 8.92879 5.7816 8.7913C5.69083 8.72323 5.61436 8.63794 5.55655 8.54031C5.49874 8.44268 5.46073 8.33461 5.44468 8.22229C5.41228 7.99545 5.47131 7.76502 5.6088 7.5817C6.0426 7.0021 6.93 6.4837 8.1612 6.1057C8.5932 5.9707 9.0828 5.8519 9.63 5.7511C9.5653 5.66068 9.49684 5.573 9.4248 5.4883C9.30406 5.34247 9.16831 5.20974 9.0198 5.0923C8.98585 5.06623 8.95039 5.04219 8.9136 5.0203C7.713 5.1949 5.868 5.8357 4.698 6.4423C4.3596 6.8797 3.9744 7.63751 3.6126 8.53391C3.2292 9.48791 2.9106 10.4905 2.736 11.1889C2.1564 13.5073 1.8216 16.3225 1.764 19.0333C2.1384 19.6057 2.9124 20.2789 3.8898 20.8657C4.7628 21.3877 5.67 21.7657 6.3846 21.9259C6.65353 21.5463 6.9134 21.1604 7.164 20.7685C5.751 20.2663 4.9932 19.5769 4.5 18.8389C4.43712 18.7444 4.39349 18.6383 4.37158 18.5269C4.34967 18.4155 4.34992 18.3009 4.37232 18.1896C4.39472 18.0782 4.43882 17.9724 4.50212 17.8781C4.56541 17.7839 4.64665 17.703 4.7412 17.6401C4.83575 17.5772 4.94176 17.5336 5.05318 17.5117C5.1646 17.4898 5.27924 17.49 5.39056 17.5124C5.50187 17.5348 5.60769 17.5789 5.70197 17.6422C5.79624 17.7055 5.87712 17.7868 5.94 17.8813C6.408 18.5869 7.6392 19.8361 13.5 19.8361C19.3626 19.8361 20.592 18.5869 21.06 17.8813C21.187 17.6903 21.3846 17.5577 21.6094 17.5124C21.8343 17.4672 22.0678 17.5131 22.2588 17.6401C22.4498 17.7671 22.5824 17.9647 22.6277 18.1896C22.6729 18.4144 22.627 18.6479 22.5 18.8389C22.0068 19.5769 21.2472 20.2681 19.8324 20.7685ZM7.344 12.6217C7.7832 12.1501 8.379 11.8837 9 11.8801C9.621 11.8837 10.2168 12.1501 10.656 12.6217C11.0934 13.0951 11.34 13.7341 11.34 14.4001C11.34 15.0661 11.0934 15.7051 10.656 16.1785C10.2168 16.6501 9.621 16.9165 9 16.9201C8.68785 16.9168 8.37971 16.8493 8.09481 16.7217C7.8099 16.5941 7.55432 16.4092 7.344 16.1785C6.90049 15.6928 6.65627 15.0578 6.66 14.4001C6.66 13.7341 6.9066 13.0951 7.344 12.6217ZM18 11.8801C17.379 11.8837 16.7832 12.1501 16.344 12.6217C15.9066 13.0951 15.66 13.7341 15.66 14.4001C15.66 15.0661 15.9066 15.7051 16.344 16.1785C16.7832 16.6501 17.379 16.9165 18 16.9201C18.621 16.9165 19.2168 16.6501 19.656 16.1785C20.0934 15.7051 20.34 15.0661 20.34 14.4001C20.34 13.7341 20.0934 13.0951 19.656 12.6217C19.4457 12.391 19.1901 12.2061 18.9052 12.0785C18.6203 11.9509 18.3122 11.8834 18 11.8801Z" fill="white"/>
</svg>
